<svg xmlns="http://www.w3.org/2000/svg" xmlns:xlink="http://www.w3.org/1999/xlink" width="431" height="171" viewBox="0 0 431 171">
  <defs>
    <linearGradient id="linear-gradient" x1="0.5" y1="1" x2="0.5" gradientUnits="objectBoundingBox">
      <stop offset="0" stop-color="#8c2747"/>
      <stop offset="1" stop-color="#d65731"/>
    </linearGradient>
    <linearGradient id="linear-gradient-2" y1="0.5" x2="1" y2="0.5" gradientUnits="objectBoundingBox">
      <stop offset="0" stop-color="#c77cbd"/>
      <stop offset="1" stop-color="#974577"/>
    </linearGradient>
    <linearGradient id="linear-gradient-10" x1="0.5" y1="1" x2="0.5" y2="0" xlink:href="#linear-gradient-2"/>
    <radialGradient id="radial-gradient" cx="0.476" cy="0.208" r="0.706" gradientTransform="translate(0.091 52.619) scale(0.809 0.752)" gradientUnits="objectBoundingBox">
      <stop offset="0" stop-color="#ffce1b"/>
      <stop offset="1" stop-color="#ff901d"/>
    </radialGradient>
    <radialGradient id="radial-gradient-2" cx="0.476" cy="0.208" r="0.706" xlink:href="#radial-gradient"/>
  </defs>
  <g id="Group_42" data-name="Group 42" transform="translate(-468.001 -60)">
    <g id="Vector_Smart_Object_copy" data-name="Vector Smart Object copy" transform="translate(300.377 -509.726)">
      <g id="Group_40" data-name="Group 40">
        <g id="Group_35" data-name="Group 35">
          <path id="Path_239" data-name="Path 239" d="M592.223,687.947l-64.355,14.395,60.266-4.7a62.16,62.16,0,0,1-2.981,5.459l-17.78,15.184c-171.05,46.109-368.059.53-368.059.53l-18.2-12.932c-14.747-28.249-15.353-51.277-11.423-68.13h49.78L171.034,632.7c5.487-18.046,15.67-27.772,15.67-27.772l26.3-11.9c196.217-36.357,358.667,4.5,358.667,4.5l17.86,14.2C603.989,642.9,598.317,671.359,592.223,687.947Z" fill-rule="evenodd" fill="url(#linear-gradient)"/>
          <path id="Path_240" data-name="Path 240" d="M588.134,697.647l-2.906-8.135-57.36,12.831Z" fill="#e6774f" fill-rule="evenodd"/>
          <g id="Group_33" data-name="Group 33" opacity="0.2" style="mix-blend-mode: multiply;isolation: isolate">
            <path id="Path_241" data-name="Path 241" d="M250.83,728.073s34.31-74.9,124.631-110.75,220.16,10.266,220.16,10.266l2.319,13.525s-122.55-61.937-213.008-22.872S263.2,729.827,263.2,729.827Z" fill-rule="evenodd" fill="url(#linear-gradient-2)"/>
            <path id="Path_242" data-name="Path 242" d="M269.008,730.6s20.44-60.634,106.453-89.481,129.087,15.733,156.591,34.577,65.431-8.265,65.431-8.265l-5.26,20.521s-35.157,8.785-57.108-4.722S450.49,614.946,381.848,644.9s-81.236,89.288-81.236,89.288Z" fill-rule="evenodd" fill="url(#linear-gradient-2)"/>
            <path id="Path_243" data-name="Path 243" d="M225.85,724.029s34.163-23.479,65.64-62.793,41.087-67.863,41.087-67.863L353.8,579.694l-19.239.4-32.474,10.841s-38.842,94.527-99.976,128.5Z" fill-rule="evenodd" fill="url(#linear-gradient-2)"/>
            <path id="Path_244" data-name="Path 244" d="M343.24,738.572s27.742-54.947,93.714-69.336S560.33,720.128,560.33,720.128l-10.27,2.5s-49.983-66.7-113.354-50.5-87.477,66.442-87.477,66.442Z" fill-rule="evenodd" fill="url(#linear-gradient-2)"/>
            <path id="Path_245" data-name="Path 245" d="M401.913,708.6s15.9-24.059,46.722-26.47,43.736,15.727,43.736,15.727S430.741,719.559,401.913,708.6Z" fill-rule="evenodd" fill="url(#linear-gradient-2)"/>
            <path id="Path_246" data-name="Path 246" d="M517.968,648.354s-36.595-30-76.7-24.825C441.27,623.53,492.682,615.251,517.968,648.354Z" fill-rule="evenodd" fill="url(#linear-gradient-2)"/>
            <path id="Path_247" data-name="Path 247" d="M317.419,641.115l38.024-49.27,15.915-12.539,10.49-.243-20.768,11.444-25.021,32.1,55.17-32.1,28.1-12.4,5.47-.151-26.858,12.549Z" fill-rule="evenodd" fill="url(#linear-gradient-2)"/>
            <path id="Path_248" data-name="Path 248" d="M176.39,695.929s84.763-43.345,92.619-111.407l-12.383,1.566s-19.809,80.217-82.755,103.425Z" fill-rule="evenodd" fill="url(#linear-gradient-2)"/>
          </g>
          <path id="Path_249" data-name="Path 249" d="M213.006,593.026s63.635-16.541,158.551-22.567,200.116,27.072,200.116,27.072S392.06,560.029,213.006,593.026Z" fill="#ff8b3e" fill-rule="evenodd"/>
          <path id="Path_250" data-name="Path 250" d="M202.111,719.437s204.242,38.231,365.263-1.147C567.373,718.289,430.915,768,202.111,719.437Z" fill="#801b34" fill-rule="evenodd"/>
          <path id="Path_251" data-name="Path 251" d="M256.627,637.758l33.656.006,72.1,3.351H281.49Z" fill="#801b34" fill-rule="evenodd"/>
          <path id="Path_252" data-name="Path 252" d="M169.688,637.758,177.8,633.4l78.823,4.354-37.988,2.409Z" fill="#e6774f" fill-rule="evenodd"/>
          <path id="Path_253" data-name="Path 253" d="M527.867,702.343,504.3,706.694l-37.494,11.6,30.529-6.6Z" fill="#801b34" fill-rule="evenodd"/>
          <path id="Path_254" data-name="Path 254" d="M208.325,705.452l-10.2-15.939,10.2,7.969Z" fill="#801b34" fill-rule="evenodd"/>
          <path id="Path_255" data-name="Path 255" d="M563.278,672.643,558,666.752l-13.217-27.316Z" fill="#801b34" fill-rule="evenodd"/>
          <path id="Path_256" data-name="Path 256" d="M555.78,672.643l-5.748-1.849-12.246,3.766Z" fill="#801b34" fill-rule="evenodd"/>
          <path id="Path_257" data-name="Path 257" d="M225.657,626.452l12.4-3.843h30.517Z" fill="#801b34" fill-rule="evenodd"/>
          <path id="Path_258" data-name="Path 258" d="M388.055,718.546l14.146-2.128,5.1,3.374Z" fill="#801b34" fill-rule="evenodd"/>
          <path id="Path_259" data-name="Path 259" d="M381.847,579.063l22.945,5.459,68.466-.46-48.462-6.1Z" fill="#e06834" fill-rule="evenodd"/>
          <path id="Path_260" data-name="Path 260" d="M505.477,587.415l22.391,1.727,16.916,3.662L534.6,597.531Z" fill="#e06834" fill-rule="evenodd"/>
          <path id="Path_261" data-name="Path 261" d="M544.784,592.8l21.827,7.112,19.994,15.4,11.336,30.8s.852-16.109-8.407-34.373l-17.86-14.2Z" fill="#b64034" fill-rule="evenodd"/>
          <path id="Path_262" data-name="Path 262" d="M171.034,632.7s10.66-19.109,20.864-26.924,49.25-17.37,49.25-17.37l-28.143,4.624-26.3,11.9A50.4,50.4,0,0,0,171.034,632.7Z" fill="#b64034" fill-rule="evenodd"/>
          <path id="Path_263" data-name="Path 263" d="M169.688,637.758l24.475,3.087,24.475-.678Z" fill="#a22634" fill-rule="evenodd"/>
          <path id="Path_264" data-name="Path 264" d="M337.169,580.036,349.847,592.8l-6.339-11.563,4.378-5.844Z" fill="#892334" fill-rule="evenodd"/>
          <path id="Path_265" data-name="Path 265" d="M349.847,592.8l-9-11.563,7.036-5.844-10.717,4.64Z" fill="#e1774f" fill-rule="evenodd"/>
          <path id="Path_266" data-name="Path 266" d="M225.657,626.452h15.491l27.426-3.843Z" fill="#e1774f" fill-rule="evenodd"/>
          <path id="Path_267" data-name="Path 267" d="M198.126,689.512l2.936,7.284,7.264,8.655Z" fill="#dc634f" fill-rule="evenodd"/>
          <path id="Path_268" data-name="Path 268" d="M466.809,718.29,522.1,704.108l-19.97,7.58L484.137,715.4Z" fill="#dc634f" fill-rule="evenodd"/>
          <path id="Path_269" data-name="Path 269" d="M388.055,718.546l6.361,1.872,12.89-.626Z" fill="#dc634f" fill-rule="evenodd"/>
          <g id="Group_34" data-name="Group 34">
            <path id="Path_270" data-name="Path 270" d="M176.8,651.475l4.1-1.412,4.58.706-2.862,2.383Z" fill="#892334" fill-rule="evenodd"/>
            <path id="Path_271" data-name="Path 271" d="M423,594.006l2.862-3.45,10.686,3.45-2.862,5.559h-7.06Z" fill="#892334" fill-rule="evenodd"/>
            <path id="Path_272" data-name="Path 272" d="M450.67,603.014l1.336-1.342,5.724,2.811-3.657,2.365-3.4-2.588Z" fill="#892334" fill-rule="evenodd"/>
            <path id="Path_273" data-name="Path 273" d="M423,594.006l3.578,4.456,5.915.671h1.415l-.222.431-7.06.431Z" fill="#f2774f" fill-rule="evenodd"/>
            <path id="Path_274" data-name="Path 274" d="M450.67,604.26l2.409,1.467H455.5l2.227-1.244-2.927,2.365h-.73Z" fill="#f2774f" fill-rule="evenodd"/>
            <path id="Path_275" data-name="Path 275" d="M176.8,651.475l3.548,1.677,3.721.509,1.414-2.892-2.416,1.446Z" fill="#f2774f" fill-rule="evenodd"/>
          </g>
          <path id="Path_276" data-name="Path 276" d="M439.42,571.837l33.838,12.224,24.629,2.483-5.516-7.576S455.362,573.061,439.42,571.837Z" fill="#fcca70" fill-rule="evenodd" style="mix-blend-mode: soft-light;isolation: isolate"/>
          <path id="Path_277" data-name="Path 277" d="M324.5,580.552l15.87-7.664a676.283,676.283,0,0,0-67.122,8.353l-10.637,4.349S300.4,581.393,324.5,580.552Z" fill="#fcca70" fill-rule="evenodd" style="mix-blend-mode: soft-light;isolation: isolate"/>
          <path id="Path_278" data-name="Path 278" d="M305.25,720.417s23.041-48.955,72.008-73.425C377.258,646.992,334.392,659.15,305.25,720.417Z" fill="#d9772f" fill-rule="evenodd" opacity="0.4"/>
          <path id="Path_279" data-name="Path 279" d="M225.85,724.029a387.166,387.166,0,0,0,72.63-71.814S287.554,679.428,225.85,724.029Z" fill="#d9772f" fill-rule="evenodd" opacity="0.4"/>
        </g>
        <g id="Group_37" data-name="Group 37">
          <path id="Path_280" data-name="Path 280" d="M182.9,654.429v19.109L194,682.456h20.363l9.3-9.66V648.177Z" fill-rule="evenodd" opacity="0.6" fill="url(#linear-gradient-10)" style="mix-blend-mode: multiply;isolation: isolate"/>
          <g id="Group_36" data-name="Group 36">
            <path id="Path_281" data-name="Path 281" d="M184.768,666.665l-2.827-18.47,10.887-8.574h21.538l9.3,8.556-1.305,18.756-10.929,6.605H194.46Z" fill-rule="evenodd" fill="url(#radial-gradient)"/>
            <path id="Path_282" data-name="Path 282" d="M214.366,639.621l-2.888-5.311L194,635.491l-1.175,4.13Z" fill="#ffe313" fill-rule="evenodd"/>
            <path id="Path_283" data-name="Path 283" d="M223.667,648.177l-12.189-13.866,1.909,5.311Z" fill="#ffbd13" fill-rule="evenodd"/>
            <path id="Path_284" data-name="Path 284" d="M194,635.491l-1.175,4.13L181.941,648.2l2.761-4.542Z" fill="#ffbd13" fill-rule="evenodd"/>
            <path id="Path_285" data-name="Path 285" d="M181.941,648.2l14.593,3.412,11.639-.839,15.493-2.592-10.279-8.556H192.828Z" fill="#fcca70" fill-rule="evenodd" style="mix-blend-mode: soft-light;isolation: isolate"/>
            <path id="Path_286" data-name="Path 286" d="M208.174,639.621l9.4,2.949-4.7-4.379Z" fill="#ffff18" fill-rule="evenodd"/>
            <path id="Path_287" data-name="Path 287" d="M193.235,638.191l1.934,1.43-4.544,1.735Z" fill="#ffff18" fill-rule="evenodd"/>
            <path id="Path_288" data-name="Path 288" d="M215.3,670.948l-8.081,2.59h4.217Z" fill="#f48600" fill-rule="evenodd"/>
            <path id="Path_289" data-name="Path 289" d="M190.808,670.948l7.748,2.59h-4.1Z" fill="#f48600" fill-rule="evenodd"/>
            <path id="Path_290" data-name="Path 290" d="M222.361,666.933l-12.24-5.493-13.547.9-11.806,4.326,9.692,6.872h16.973Z" fill="#a61b77" fill-rule="evenodd" opacity="0.3" style="mix-blend-mode: multiply;isolation: isolate"/>
          </g>
          <path id="Path_291" data-name="Path 291" d="M187.972,667.553l7.2,4.853,16.309-.234,5.321-3.49-4.936,1.3-16.693.969Z" fill="#fcca70" fill-rule="evenodd" style="mix-blend-mode: soft-light;isolation: isolate"/>
        </g>
        <g id="Group_39" data-name="Group 39">
          <path id="Path_292" data-name="Path 292" d="M538.2,654.429v19.109l11.108,8.919h20.363l9.3-9.66V648.177Z" fill-rule="evenodd" opacity="0.6" fill="url(#linear-gradient-10)" style="mix-blend-mode: multiply;isolation: isolate"/>
          <g id="Group_38" data-name="Group 38">
            <path id="Path_293" data-name="Path 293" d="M540.074,666.665l-2.826-18.47,10.887-8.574h21.538l9.3,8.556-1.305,18.756-10.929,6.605H549.767Z" fill-rule="evenodd" fill="url(#radial-gradient-2)"/>
            <path id="Path_294" data-name="Path 294" d="M569.673,639.621l-2.888-5.311-17.475,1.18-1.175,4.13Z" fill="#ffe313" fill-rule="evenodd"/>
            <path id="Path_295" data-name="Path 295" d="M578.973,648.177l-12.189-13.866,1.909,5.311Z" fill="#ffbd13" fill-rule="evenodd"/>
            <path id="Path_296" data-name="Path 296" d="M549.31,635.491l-1.175,4.13L537.248,648.2l2.761-4.542Z" fill="#ffbd13" fill-rule="evenodd"/>
            <path id="Path_297" data-name="Path 297" d="M537.248,648.2l14.593,3.412,11.639-.839,15.493-2.592-10.279-8.556H548.135Z" fill="#fcca70" fill-rule="evenodd" style="mix-blend-mode: soft-light;isolation: isolate"/>
            <path id="Path_298" data-name="Path 298" d="M563.48,639.621l9.4,2.949-4.7-4.379Z" fill="#ffff18" fill-rule="evenodd"/>
            <path id="Path_299" data-name="Path 299" d="M548.541,638.191l1.935,1.43-4.544,1.735Z" fill="#ffff18" fill-rule="evenodd"/>
            <path id="Path_300" data-name="Path 300" d="M570.6,670.948l-8.081,2.59h4.217Z" fill="#f48600" fill-rule="evenodd"/>
            <path id="Path_301" data-name="Path 301" d="M546.114,670.948l7.747,2.59h-4.1Z" fill="#f48600" fill-rule="evenodd"/>
            <path id="Path_302" data-name="Path 302" d="M577.668,666.933l-11.106-5.569-14.681.975-11.807,4.326,9.692,6.872h16.973Z" fill="#a61b77" fill-rule="evenodd" opacity="0.3" style="mix-blend-mode: multiply;isolation: isolate"/>
          </g>
          <path id="Path_303" data-name="Path 303" d="M543.279,667.553l7.2,4.853,16.308-.234,5.321-3.49-4.936,1.3-16.693.969Z" fill="#fcca70" fill-rule="evenodd" style="mix-blend-mode: soft-light;isolation: isolate"/>
        </g>
      </g>
    </g>
    <text id="Big_A" data-name="Big A" transform="translate(683 163.445)" fill="#fff" font-size="69.528" font-family="CooperBlackStd, Cooper Std"><tspan x="-101.511" y="0">Big A</tspan></text>
  </g>
</svg>
