<?xml version="1.0" encoding="utf-8"?>
<!-- Generator: Adobe Illustrator 23.0.5, SVG Export Plug-In . SVG Version: 6.00 Build 0)  -->
<svg version="1.1" id="Layer_1" xmlns="http://www.w3.org/2000/svg" xmlns:xlink="http://www.w3.org/1999/xlink" x="0px" y="0px"
	 viewBox="0 0 77 426.5" style="enable-background:new 0 0 77 426.5;" xml:space="preserve">
<style type="text/css">
	.st0{fill:none;stroke:#000000;stroke-width:10;}
	.st1{fill:none;stroke:#FFFFFF;stroke-width:10;}
</style>
<g id="Shape_2">
	<g>
		<path class="st0" d="M60.5,3.7c0,0,37,99.8-22,203C-9.7,291-0.6,353.7,32.4,398c7.4,9.8,15.8,18.7,25.1,26.7"/>
		<path class="st0" d="M60.5,2.7c0,0,37,99.8-22,203C-9.7,290-0.6,352.7,32.4,397c7.4,9.8,15.8,18.7,25.1,26.7"/>
	</g>
	<g>
		<g>
			<g>
				<path class="st0" d="M60.5,2.7c0,0,37,99.8-22,203C-9.7,290-0.6,352.7,32.4,397c7.4,9.8,15.8,18.7,25.1,26.7"/>
			</g>
			<g>
				<path class="st1" d="M60.5,1.7c0,0,37,99.8-22,203C-9.7,289-0.6,351.7,32.4,396c7.4,9.8,15.8,18.7,25.1,26.7"/>
			</g>
		</g>
	</g>
</g>
</svg>
