<?xml version="1.0" encoding="utf-8"?>
<!-- Generator: Adobe Illustrator 23.0.5, SVG Export Plug-In . SVG Version: 6.00 Build 0)  -->
<svg version="1.1" id="Layer_1" xmlns="http://www.w3.org/2000/svg" xmlns:xlink="http://www.w3.org/1999/xlink" x="0px" y="0px"
	 viewBox="0 0 156 155.6" style="enable-background:new 0 0 156 155.6;" xml:space="preserve">
<style type="text/css">
	.st0{fill:#31F558;}
</style>
<g transform="matrix(1, 0, 0, 1, 0, 0)">
	<g>
		<path id="Shape_3-2_32_" d="M0,155.6c0,0-5.1-177.1,156-151c-1.7,3.4-2.8,7.2-3,11c0,0-138.3-29.8-142,140
			C7.4,155.4,3.7,155.4,0,155.6z"/>
		<path id="Shape_3-2_31_" d="M0,154.6c0,0-5.1-177.1,156-151c-1.7,3.4-2.8,7.2-3,11c0,0-138.3-29.8-142,140
			C7.4,154.4,3.7,154.4,0,154.6z"/>
	</g>
	<g>
		<g>
			<g>
				<path id="Shape_3-2_26_" d="M0,154.6c0,0-5.1-177.1,156-151c-1.7,3.4-2.8,7.2-3,11c0,0-138.3-29.8-142,140
					C7.4,154.4,3.7,154.4,0,154.6z"/>
			</g>
			<g>
				<g>
					<path id="Shape_3-2_25_" class="st0" d="M0,153.6c0,0-5.1-177.1,156-151c-1.7,3.4-2.8,7.2-3,11c0,0-138.3-29.8-142,140
						C7.4,153.4,3.7,153.4,0,153.6z"/>
				</g>
			</g>
		</g>
	</g>
</g>
</svg>
