<svg xmlns="http://www.w3.org/2000/svg" width="174" height="175" viewBox="0 0 174 175">
  <g id="Group_16" data-name="Group 16" transform="translate(-229 -158)">
    <ellipse id="Ellipse_1_copy_9" data-name="Ellipse 1 copy 9" cx="87" cy="87.5" rx="87" ry="87.5" transform="translate(229 158)" fill="#fff" opacity="0.502"/>
    <ellipse id="Ellipse_1_copy_3" data-name="Ellipse 1 copy 3" cx="59" cy="59.3" rx="59" ry="59.3" transform="translate(257 197.4)"/>
    <g id="Ellipse_1_copy_3-2" data-name="Ellipse 1 copy 3" transform="translate(263.47 188)" fill="#f47f6f" stroke="#fff" stroke-linejoin="round" stroke-width="12">
      <ellipse cx="52.53" cy="52.81" rx="52.53" ry="52.81" stroke="none"/>
      <ellipse cx="52.53" cy="52.81" rx="58.53" ry="58.81" fill="none"/>
    </g>
    <g id="Vector_Smart_Object_copy_15" data-name="Vector Smart Object copy 15">
      <g id="Group_5" data-name="Group 5">
        <path id="Path_51" data-name="Path 51" d="M348.193,259.491l-8.125.373-.366,8.264a.672.672,0,0,1-1.15.452l-13.909-14.15a24.568,24.568,0,0,0,10.22-10.121l13.777,14.017a.685.685,0,0,1-.447,1.166Z" fill="#fd646f"/>
        <path id="Path_52" data-name="Path 52" d="M348.193,259.491l-7.51.344a.679.679,0,0,0-.643.652l-.339,7.64a.672.672,0,0,1-1.15.452l-11.916-12.123-1.993-2.027a24.568,24.568,0,0,0,10.22-10.121l1.978,2.011,11.8,12.006a.686.686,0,0,1-.447,1.166Z" fill="#fd646f"/>
        <path id="Path_53" data-name="Path 53" d="M348.193,259.49l-7.509.344a.68.68,0,0,0-.643.652l.128-2.614a.679.679,0,0,1,.644-.649l6.465-.283,1.362,1.385a.685.685,0,0,1-.447,1.165Z" fill="#fc4755"/>
        <path id="Path_54" data-name="Path 54" d="M315.971,256.572l-5.154,19.614a.67.67,0,0,1-1.219.192l-4.058-6.445a.668.668,0,0,0-.878-.239l-6.673,3.512a.677.677,0,0,1-.961-.783l4.793-18.246a24.248,24.248,0,0,0,14.151,2.395Z" fill="#fd646f"/>
        <g id="Group_4" data-name="Group 4">
          <path id="Path_55" data-name="Path 55" d="M303.71,256.184l-4.271,16.259-1.45.764a.677.677,0,0,1-.961-.783l4.08-15.532,1.1-4.21q1.045.574,2.142,1.045Z" fill="#fc4755"/>
          <path id="Path_56" data-name="Path 56" d="M311.319,274.271l-.5,1.915a.67.67,0,0,1-1.219.193l-4.058-6.445a.669.669,0,0,0-.878-.24l2.288-1.2a.668.668,0,0,1,.878.239Z" fill="#fc4755"/>
          <path id="Path_57" data-name="Path 57" d="M301.931,253.716l7.107,1.178,6.932,1.679-.868,3.3a26.656,26.656,0,0,1-13.841-2.9l-.155-.079Z" fill="#fc4755"/>
          <path id="Path_58" data-name="Path 58" d="M336.841,246.319l-1.978-2.011-6.3,5.141-3.923,4.98.8.818,1.977,2.01,11.128,11.321a.672.672,0,0,0,1.15-.452l.074-1.681-11.07-11.288a27.216,27.216,0,0,0,8.134-8.84Z" fill="#fc4755"/>
        </g>
        <path id="Path_59" data-name="Path 59" d="M337.675,225.7a25.167,25.167,0,0,1-2.186,18.441,24.568,24.568,0,0,1-10.22,10.121,24.076,24.076,0,0,1-22.172.092c-.219-.111-.435-.225-.65-.344a24.939,24.939,0,0,1-2.223-1.38,24.8,24.8,0,0,1-6.937-7.376,25.166,25.166,0,0,1-2.855-6.708A24.9,24.9,0,0,1,307.7,208.077a24.065,24.065,0,0,1,16.873,1.6,24.409,24.409,0,0,1,2.905,1.668A24.825,24.825,0,0,1,337.675,225.7Z" fill="#faa515"/>
        <ellipse id="Ellipse_1" data-name="Ellipse 1" cx="17.516" cy="17.828" rx="17.516" ry="17.828" transform="matrix(0.966, -0.259, 0.259, 0.966, 292.586, 219.5)" fill="#fad207"/>
        <path id="Path_60" data-name="Path 60" d="M330.972,227.52A17.831,17.831,0,0,1,318.6,249.341a17.519,17.519,0,0,1-21.466-12.62,18.105,18.105,0,0,1-.432-2.154A17.474,17.474,0,0,0,317.48,245.1a17.794,17.794,0,0,0,12.8-19.667,18.058,18.058,0,0,1,.687,2.085Z" fill="#faa515"/>
        <path id="Path_61" data-name="Path 61" d="M309.505,214.9a17.831,17.831,0,0,0-12.372,21.821,17.519,17.519,0,0,0,21.466,12.62,17.831,17.831,0,0,0,12.372-21.821A17.519,17.519,0,0,0,309.505,214.9Zm8.57,32.454a15.514,15.514,0,0,1-18.989-11.164,15.79,15.79,0,0,1,10.944-19.3,15.513,15.513,0,0,1,18.989,11.164,15.79,15.79,0,0,1-10.944,19.3Z" fill="#faf063" fill-rule="evenodd"/>
        <path id="Path_62" data-name="Path 62" d="M312.122,222.438l3.6,4.186a.668.668,0,0,0,.588.23l5.425-.659a.683.683,0,0,1,.659,1.028L319.59,232a.693.693,0,0,0-.033.637l2.3,5.048a.681.681,0,0,1-.762.953l-5.324-1.239a.667.667,0,0,0-.609.166l-4,3.774a.672.672,0,0,1-1.13-.439l-.495-5.538a.684.684,0,0,0-.342-.535l-4.777-2.713a.688.688,0,0,1,.064-1.225l5.022-2.182a.682.682,0,0,0,.4-.5l1.052-5.45a.671.671,0,0,1,1.169-.318Z" fill="#faa515"/>
      </g>
      <g id="Group_6" data-name="Group 6">
        <path id="Path_63" data-name="Path 63" d="M331.607,232.109a1.021,1.021,0,0,0,.948-1.087,19.289,19.289,0,0,0-.606-3.769A18.551,18.551,0,0,0,309.242,213.9a18.882,18.882,0,0,0-13.087,23.081,18.462,18.462,0,0,0,36.012-.846,1.03,1.03,0,0,0-.773-1.225,1.009,1.009,0,0,0-1.2.785,16.449,16.449,0,0,1-32.084.755,16.822,16.822,0,0,1,11.659-20.564A16.527,16.527,0,0,1,330,227.784a17.2,17.2,0,0,1,.54,3.36,1.019,1.019,0,0,0,1.07.966Z"/>
        <path id="Path_64" data-name="Path 64" d="M323.938,225.471a1.006,1.006,0,0,0-.969-.462l-6.607.8-4.383-5.1a1.011,1.011,0,0,0-1.753.477l-1.282,6.642-6.117,2.657a1.043,1.043,0,0,0-.094,1.844l5.815,3.3.6,6.744a1.015,1.015,0,0,0,1.695.663l4.876-4.6,6.49,1.511a1.029,1.029,0,0,0,1.141-1.434l-2.8-6.146,3.408-5.81a1.043,1.043,0,0,0-.021-1.087Zm-5.4,6.308a1.044,1.044,0,0,0-.049.959l2.159,4.738-5-1.165a1,1,0,0,0-.912.248l-3.759,3.547-.465-5.2A1.032,1.032,0,0,0,310,234.1l-4.483-2.546,4.716-2.049a1.023,1.023,0,0,0,.594-.746l.988-5.121,3.379,3.933a1,1,0,0,0,.882.345l5.094-.618Z"/>
        <path id="Path_65" data-name="Path 65" d="M350.431,258.694l-13.983-14.226a26.206,26.206,0,0,0,2.2-19.037,25.3,25.3,0,0,0-42.3-11.973,1.041,1.041,0,0,0-.023,1.454,1,1,0,0,0,1.429.026A23.292,23.292,0,0,1,336.7,225.962a23.892,23.892,0,0,1-16.559,29.205,23.473,23.473,0,0,1-28.731-16.891,24.143,24.143,0,0,1,3.414-19.838,1.04,1.04,0,0,0-.251-1.432,1,1,0,0,0-1.407.254,26.223,26.223,0,0,0-3.708,21.547,25.834,25.834,0,0,0,11.314,15.387l-1.444,5.5a1.012,1.012,0,0,0,1.953.534l1.313-5a25.1,25.1,0,0,0,11.948,2.8l-4.5,17.14-3.977-6.317a1,1,0,0,0-1.316-.36l-6.541,3.442,1.858-7.074a1.032,1.032,0,0,0-.716-1.26,1.008,1.008,0,0,0-1.238.726l-2.449,9.325a1.024,1.024,0,0,0,1.442,1.181l7.755-4.081,4.716,7.49a1.011,1.011,0,0,0,1.827-.287l5.268-20.054a25.151,25.151,0,0,0,7.855-2.141l8.675,8.826a1,1,0,0,0,1.429,0,1.041,1.041,0,0,0,0-1.454l-8.2-8.342a25.563,25.563,0,0,0,8.956-8.5l12,12.208-7.36.338a1.018,1.018,0,0,0-.963.98l-.332,7.488-.764-.777a1,1,0,0,0-1.43,0,1.041,1.041,0,0,0,0,1.454l2.385,2.426a1.013,1.013,0,0,0,1.724-.679l.394-8.879,8.727-.4a1.038,1.038,0,0,0,.668-1.754Z"/>
      </g>
    </g>
  </g>
</svg>
