<svg xmlns="http://www.w3.org/2000/svg" xmlns:xlink="http://www.w3.org/1999/xlink" width="166.001" height="142.001" viewBox="0 0 166.001 142.001">
  <defs>
    <linearGradient id="linear-gradient" x1="0.302" y1="-0.552" x2="0.302" y2="-1.559" gradientUnits="objectBoundingBox">
      <stop offset="0" stop-color="#8c2747"/>
      <stop offset="1" stop-color="#d65731"/>
    </linearGradient>
    <linearGradient id="linear-gradient-2" x1="-0.29" y1="-1.858" x2="0.797" y2="-1.858" gradientUnits="objectBoundingBox">
      <stop offset="0" stop-color="#c77cbd"/>
      <stop offset="1" stop-color="#974577"/>
    </linearGradient>
    <linearGradient id="linear-gradient-3" x1="-0.392" y1="-3.563" x2="0.676" y2="-3.563" xlink:href="#linear-gradient-2"/>
    <linearGradient id="linear-gradient-4" x1="-0.355" y1="-1.643" x2="0.803" y2="-1.643" xlink:href="#linear-gradient-2"/>
    <linearGradient id="linear-gradient-5" x1="-0.692" y1="-6.643" x2="0.434" y2="-6.643" xlink:href="#linear-gradient-2"/>
    <linearGradient id="linear-gradient-6" x1="-0.914" y1="-9.683" x2="0.18" y2="-9.683" xlink:href="#linear-gradient-2"/>
    <linearGradient id="linear-gradient-7" x1="-0.25" y1="1.176" x2="1.25" y2="-0.176" gradientUnits="objectBoundingBox">
      <stop offset="0" stop-color="#ffdd1c"/>
      <stop offset="1" stop-color="#ffb61c"/>
    </linearGradient>
  </defs>
  <g id="Group_63" data-name="Group 63" transform="translate(-331.999 -387.999)">
    <g id="Vector_Smart_Object_copy_5" data-name="Vector Smart Object copy 5" transform="translate(210.538 -36.164)">
      <g id="Group_24" data-name="Group 24">
        <g id="Group_23" data-name="Group 23">
          <path id="Path_216" data-name="Path 216" d="M287.461,498.179,259.288,556.5s-69.835,28.493-119.23-12.363l-11.984-25.452,13.818-2.8-16.754-3.452-3.677-7.815,5.571-24.7,18.943-33.95s76.547-43.733,125.718,4.627Z" fill-rule="evenodd" fill="url(#linear-gradient)"/>
          <path id="Path_217" data-name="Path 217" d="M271.708,450.6l-12.258-15.941s-49.667-26.824-117.489,5.3l-15.655,35.025-4.839,29.644,5.577-24.706,18.919-33.95S205.75,412.64,271.708,450.6Z" fill="#ff8b3e" fill-rule="evenodd"/>
          <path id="Path_218" data-name="Path 218" d="M141.961,439.956l4,6.014-18.918,33.949-5.578,24.7L126.3,474.98Z" fill="#e06834" fill-rule="evenodd"/>
          <path id="Path_219" data-name="Path 219" d="M140.169,456.367l23.775-17.637-20.09,4.072Z" fill="#e06834" fill-rule="evenodd"/>
          <path id="Path_220" data-name="Path 220" d="M191.761,433.092l9.313,3.653,32.623-1.116-19.24-4.106Z" fill="#e06834" fill-rule="evenodd"/>
          <path id="Path_221" data-name="Path 221" d="M214.37,565.9l14.3-2.9,27.169-14.179,18.035-22.515L259.3,556.493S233.134,566.069,214.37,565.9Z" fill="#801b34" fill-rule="evenodd"/>
          <path id="Path_222" data-name="Path 222" d="M284.636,489.673l-32.463,13.009L211.122,511Z" fill="#892334" fill-rule="evenodd"/>
          <g id="Group_22" data-name="Group 22" opacity="0.2" style="mix-blend-mode: multiply;isolation: isolate">
            <path id="Path_223" data-name="Path 223" d="M140.049,544.127s42-69.5,134.12-86.094L278,469.62s-80.415-4.171-130.9,79.792Z" fill-rule="evenodd" fill="url(#linear-gradient-2)"/>
            <path id="Path_224" data-name="Path 224" d="M169.5,560.472s54.548-47.518,111.912-49.789l-6.156,12.75s-56.086-8.423-96.5,39.676Z" fill-rule="evenodd" fill="url(#linear-gradient-3)"/>
            <path id="Path_225" data-name="Path 225" d="M137.331,538.352s49.8-82.333,105.469-100.318l-9.1-2.406s-54.1,27.672-98.184,98.85Z" fill-rule="evenodd" fill="url(#linear-gradient-4)"/>
            <path id="Path_226" data-name="Path 226" d="M154.345,487.584s8.734-33.917,42.149-30.989C196.493,456.595,169.5,481.615,154.345,487.584Z" fill-rule="evenodd" fill="url(#linear-gradient-5)"/>
            <path id="Path_227" data-name="Path 227" d="M193.035,505.517s6.825-13.163,36.593-21.128C229.628,484.389,209.836,492.651,193.035,505.517Z" fill-rule="evenodd" fill="url(#linear-gradient-6)"/>
          </g>
          <path id="Path_228" data-name="Path 228" d="M246.291,439.153l18.169,11.3,7.079,11.192L281.666,480.7l-9.958-30.1-11.869-6.842Z" fill="#b64034" fill-rule="evenodd"/>
          <path id="Path_229" data-name="Path 229" d="M140.169,456.367l-10.085,24-2.7,13.745-5.913,10.514,5.578-24.7Z" fill="#982f34" fill-rule="evenodd"/>
          <path id="Path_230" data-name="Path 230" d="M241.355,504.874l11.924-1,18.947-9.23Z" fill="#dc634f" fill-rule="evenodd"/>
          <path id="Path_231" data-name="Path 231" d="M128.074,518.684l5.96-4.42,7.859,1.619Z" fill="#ff8b3e" fill-rule="evenodd"/>
          <path id="Path_232" data-name="Path 232" d="M162.645,557.845l5.969-12.794-3.791,13.706Z" fill="#892334" fill-rule="evenodd"/>
          <path id="Path_233" data-name="Path 233" d="M172.459,448.041l14.768-1.212-6.177-.818Z" fill="#892334" fill-rule="evenodd"/>
          <path id="Path_234" data-name="Path 234" d="M214.833,552.888l12.391-8.543-5.612,7.169Z" fill="#892334" fill-rule="evenodd"/>
          <path id="Path_235" data-name="Path 235" d="M282.893,484.391V499.76l-3.207,14.5,7.776-16.086Z" fill="#982f34" fill-rule="evenodd"/>
          <path id="Path_236" data-name="Path 236" d="M140.049,544.127s34.227-49.912,85.409-71.037C225.458,473.09,173.8,488.668,140.049,544.127Z" fill="#d9772f" fill-rule="evenodd" opacity="0.4"/>
          <path id="Path_237" data-name="Path 237" d="M169.5,560.472s46.51-43.589,111.912-49.789C281.415,510.683,227.9,508.87,169.5,560.472Z" fill="#d9772f" fill-rule="evenodd" opacity="0.4"/>
          <path id="Path_238" data-name="Path 238" d="M265.889,525.753,260.8,536.9l-8.206,11.72Z" fill="#801b34" fill-rule="evenodd"/>
          <path id="Path_239" data-name="Path 239" d="M246.291,549.411l10.5-14.527-5.25,9.46Z" fill="#801b34" fill-rule="evenodd"/>
        </g>
      </g>
    </g>
    <g id="Vector_Smart_Object_copy_7" data-name="Vector Smart Object copy 7">
      <g id="Vector_Smart_Object_copy_7-2" data-name="Vector Smart Object copy 7" transform="translate(384.486 424)">
        <g id="Group_27" data-name="Group 27">
          <path id="Path_242" data-name="Path 242" d="M15.109,1.565C8.706-2.106,3.514.9,3.514,8.279V62.716c0,7.384,5.192,10.388,11.6,6.72l47.6-27.288c6.406-3.673,6.406-9.624,0-13.3Z"/>
        </g>
      </g>
      <path id="Gradient_Overlay" data-name="Gradient Overlay" d="M388,486.716V432.278c0-7.376,5.19-10.384,11.595-6.713l47.6,27.287c6.405,3.673,6.405,9.624,0,13.3l-47.6,27.287A10.532,10.532,0,0,1,394.439,495C390.623,495,388,491.964,388,486.716Z" fill="url(#linear-gradient-7)"/>
    </g>
  </g>
</svg>
